<svg width="30" height="28" viewBox="0 0 30 28" fill="none" xmlns="http://www.w3.org/2000/svg">
<g filter="url(#filter0_d)">
<path d="M25.0575 6.94515C24.938 6.50118 24.704 6.09638 24.3789 5.77127C24.0537 5.44616 23.649 5.21215 23.205 5.09265C21.57 4.65015 15 4.65015 15 4.65015C15 4.65015 8.42998 4.65015 6.79498 5.09265C6.35101 5.21215 5.94622 5.44616 5.62111 5.77127C5.296 6.09638 5.06199 6.50118 4.94248 6.94515C4.63719 8.6126 4.48904 10.305 4.49998 12.0001C4.48904 13.6953 4.63719 15.3877 4.94248 17.0551C5.06199 17.4991 5.296 17.9039 5.62111 18.229C5.94622 18.5541 6.35101 18.7881 6.79498 18.9076C8.42998 19.3501 15 19.3501 15 19.3501C15 19.3501 21.57 19.3501 23.205 18.9076C23.649 18.7881 24.0537 18.5541 24.3789 18.229C24.704 17.9039 24.938 17.4991 25.0575 17.0551C25.3628 15.3877 25.5109 13.6953 25.5 12.0001C25.5109 10.305 25.3628 8.6126 25.0575 6.94515ZM12.9 15.1501V8.85015L18.3525 12.0001L12.9 15.1501Z" fill="#4FBFA5"/>
</g>
<defs>
<filter id="filter0_d" x="-1" y="0" width="32" height="32" filterUnits="userSpaceOnUse" color-interpolation-filters="sRGB">
<feFlood flood-opacity="0" result="BackgroundImageFix"/>
<feColorMatrix in="SourceAlpha" type="matrix" values="0 0 0 0 0 0 0 0 0 0 0 0 0 0 0 0 0 0 127 0" result="hardAlpha"/>
<feOffset dy="4"/>
<feGaussianBlur stdDeviation="2"/>
<feComposite in2="hardAlpha" operator="out"/>
<feColorMatrix type="matrix" values="0 0 0 0 0 0 0 0 0 0 0 0 0 0 0 0 0 0 0.25 0"/>
<feBlend mode="normal" in2="BackgroundImageFix" result="effect1_dropShadow"/>
<feBlend mode="normal" in="SourceGraphic" in2="effect1_dropShadow" result="shape"/>
</filter>
</defs>
</svg>
