<svg width="30" height="28" fill="none" xmlns="http://www.w3.org/2000/svg"><g filter="url(#filter0_d)"><path d="M25.058 6.945a2.625 2.625 0 00-1.853-1.852C21.57 4.65 15 4.65 15 4.65s-6.57 0-8.205.443a2.625 2.625 0 00-1.853 1.852A27.097 27.097 0 004.5 12a27.114 27.114 0 00.442 5.055 2.625 2.625 0 001.853 1.853C8.43 19.35 15 19.35 15 19.35s6.57 0 8.205-.442a2.625 2.625 0 001.853-1.853A27.1 27.1 0 0025.5 12a27.1 27.1 0 00-.442-5.055zM12.9 15.15v-6.3L18.352 12 12.9 15.15z" fill="#4FBFA5"/></g><defs><filter id="filter0_d" x="-1" y="0" width="32" height="32" filterUnits="userSpaceOnUse" color-interpolation-filters="sRGB"><feFlood flood-opacity="0" result="BackgroundImageFix"/><feColorMatrix in="SourceAlpha" values="0 0 0 0 0 0 0 0 0 0 0 0 0 0 0 0 0 0 127 0" result="hardAlpha"/><feOffset dy="4"/><feGaussianBlur stdDeviation="2"/><feComposite in2="hardAlpha" operator="out"/><feColorMatrix values="0 0 0 0 0 0 0 0 0 0 0 0 0 0 0 0 0 0 0.25 0"/><feBlend in2="BackgroundImageFix" result="effect1_dropShadow"/><feBlend in="SourceGraphic" in2="effect1_dropShadow" result="shape"/></filter></defs></svg>